<?xml version="1.0" encoding="utf-8"?>
<!-- Generator: Adobe Illustrator 20.1.0, SVG Export Plug-In . SVG Version: 6.00 Build 0)  -->
<svg version="1.1" id="Layer_1" xmlns="http://www.w3.org/2000/svg" xmlns:xlink="http://www.w3.org/1999/xlink" x="0px" y="0px"
	 viewBox="0 0 1275.6 360" style="enable-background:new 0 0 1275.6 360;" xml:space="preserve">
<style type="text/css">
	.st0{fill:none;}
	.st1{fill:#B3B2AB;}
	.st2{fill:#5D5F5E;}
	.st3{fill:#649F90;}
	.st4{fill:#D76239;}
</style>
<g>
	<path class="st0" d="M450.7,280c-0.8-0.8-1.8-1.5-3-2c-1.2-0.5-2.5-0.8-4-0.8c-1.4,0-2.7,0.2-3.9,0.7c-1.2,0.5-2.2,1.1-3,1.9
		c-0.9,0.8-1.5,1.7-2,2.8c-0.5,1-0.7,2.1-0.7,3.3v0.6h19.1V286c0-1.1-0.2-2.2-0.7-3.2C452.2,281.8,451.6,280.8,450.7,280z"/>
	<path class="st0" d="M353.8,277.3c-3.8,0-6.5,0.9-8.1,2.7c-1.6,1.8-2.4,4.4-2.4,8v4.4c0,3.3,0.7,5.6,2,7c1.3,1.4,3.1,2.1,5.5,2.1
		c1.3,0,2.7-0.4,4.3-1.2c1.6-0.8,3.3-2.1,5-4v-17.8c-0.9-0.3-1.9-0.5-3-0.7C355.9,277.4,354.9,277.3,353.8,277.3z"/>
	<path class="st0" d="M940.3,280c-0.8-0.8-1.8-1.5-3-2c-1.2-0.5-2.5-0.8-4-0.8c-1.4,0-2.7,0.2-3.9,0.7c-1.2,0.5-2.2,1.1-3,1.9
		c-0.9,0.8-1.5,1.7-2,2.8c-0.5,1-0.7,2.1-0.7,3.3v0.6h19.1V286c0-1.1-0.2-2.2-0.7-3.2C941.8,281.8,941.2,280.8,940.3,280z"/>
	<path class="st0" d="M387.5,58.7h-35.8V157h36.3c27.8,0,49.5-21,49.5-48.9C437.5,79.9,415.5,58.7,387.5,58.7z"/>
	<path class="st0" d="M799,53.1h-36.1v68.3H799c26,0,40.9-12.3,40.9-34.5C840,65,825,53.1,799,53.1z"/>
	<polygon class="st0" points="865.7,163.2 984.9,163.2 925.3,60 	"/>
	<path class="st0" d="M624.9,280c-0.8-0.8-1.8-1.5-3-2c-1.2-0.5-2.5-0.8-4-0.8c-1.4,0-2.7,0.2-3.9,0.7c-1.2,0.5-2.2,1.1-3,1.9
		c-0.9,0.8-1.5,1.7-2,2.8c-0.5,1-0.7,2.1-0.7,3.3v0.6h19.1V286c0-1.1-0.2-2.2-0.7-3.2C626.3,281.8,625.7,280.8,624.9,280z"/>
	<path class="st0" d="M649.1,292.2c-0.6,0.3-1.1,0.7-1.6,1.1c-0.4,0.5-0.8,1-1,1.6c-0.3,0.6-0.4,1.3-0.4,1.9c0,0.8,0.2,1.5,0.5,2.1
		c0.3,0.6,0.8,1.2,1.3,1.6c0.5,0.5,1.2,0.8,1.8,1.1c0.7,0.3,1.4,0.4,2.1,0.4c0.8,0,1.7-0.2,2.7-0.5c1-0.3,2.1-0.7,3.1-1.2
		c1.1-0.5,2.1-1,3.1-1.5c1-0.5,1.8-1,2.5-1.4v-5.7h-12.2C650.4,291.8,649.8,292,649.1,292.2z"/>
	<path class="st0" d="M1037.9,280c-0.8-0.8-1.8-1.5-3-2c-1.2-0.5-2.5-0.8-4-0.8c-1.4,0-2.7,0.2-3.9,0.7c-1.2,0.5-2.2,1.1-3,1.9
		c-0.9,0.8-1.5,1.7-2,2.8c-0.5,1-0.7,2.1-0.7,3.3v0.6h19.1V286c0-1.1-0.2-2.2-0.7-3.2C1039.4,281.8,1038.8,280.8,1037.9,280z"/>
	<path class="st0" d="M308,292.2c-0.6,0.3-1.1,0.7-1.6,1.1c-0.4,0.5-0.8,1-1,1.6c-0.3,0.6-0.4,1.3-0.4,1.9c0,0.8,0.2,1.5,0.5,2.1
		c0.3,0.6,0.8,1.2,1.3,1.6c0.5,0.5,1.2,0.8,1.8,1.1c0.7,0.3,1.4,0.4,2.1,0.4c0.8,0,1.7-0.2,2.7-0.5c1-0.3,2.1-0.7,3.1-1.2
		c1.1-0.5,2.1-1,3.1-1.5c1-0.5,1.8-1,2.5-1.4v-5.7H310C309.3,291.8,308.6,292,308,292.2z"/>
	<path class="st0" d="M228.9,58.4c-27.8,0-50.9,21.9-50.9,49.5c0,27.6,23.1,49.8,50.9,49.8c27.8,0,50.5-22.2,50.5-49.8
		C279.4,80.3,256.7,58.4,228.9,58.4z"/>
	<path class="st0" d="M964.6,292.2c-0.6,0.3-1.1,0.7-1.6,1.1c-0.4,0.5-0.8,1-1,1.6c-0.3,0.6-0.4,1.3-0.4,1.9c0,0.8,0.2,1.5,0.5,2.1
		c0.3,0.6,0.8,1.2,1.3,1.6c0.5,0.5,1.2,0.8,1.8,1.1c0.7,0.3,1.4,0.4,2.1,0.4c0.8,0,1.7-0.2,2.7-0.5c1-0.3,2.1-0.7,3.1-1.2
		c1.1-0.5,2.1-1,3.1-1.5c1-0.5,1.8-1,2.5-1.4v-5.7h-12.2C965.9,291.8,965.2,292,964.6,292.2z"/>
	<polygon class="st1" points="521.4,281.6 517.3,288.7 513.3,295.8 521.4,295.8 529.6,295.8 525.5,288.7 	"/>
	<polygon class="st1" points="795.3,281.6 791.2,288.7 787.1,295.8 795.3,295.8 803.5,295.8 799.4,288.7 	"/>
	<path class="st1" d="M231.9,260c-0.9,0-1.6,0.3-2.2,0.9c-0.6,0.6-0.9,1.3-0.9,2.2c0,0.9,0.3,1.6,0.9,2.2c0.6,0.6,1.3,0.9,2.2,0.9
		s1.6-0.3,2.2-0.9c0.6-0.6,0.9-1.3,0.9-2.2c0-0.9-0.3-1.6-0.9-2.2C233.6,260.3,232.8,260,231.9,260z"/>
	<rect x="229.2" y="273.3" class="st1" width="5.6" height="32.9"/>
	<path class="st1" d="M278.9,272.5c-2,0-3.7,0.4-5.2,1.1s-3.1,1.9-4.9,3.4c-1.3-1.8-2.7-3-4.3-3.6c-1.6-0.6-3.4-0.9-5.3-0.9
		c-0.7,0-1.4,0.1-2.1,0.3c-0.7,0.2-1.4,0.5-2.1,0.9c-0.7,0.3-1.4,0.7-2,1.2c-0.6,0.5-1.2,0.9-1.6,1.5H251c-0.2-0.7-0.4-1.4-0.7-2
		c-0.3-0.6-0.6-1.2-0.9-1.8l-5.2,2.4c1,2,1.5,4.2,1.5,6.5v24.8h5.6v-25.6c0.6-0.7,1.6-1.4,2.8-2.1c1.3-0.8,2.9-1.1,4.9-1.1
		c2,0,3.5,0.5,4.6,1.4c1.1,1,1.7,2.3,1.7,3.9v23.5h5.6v-25.6c0.3-0.3,0.7-0.7,1.2-1c0.5-0.4,1.1-0.8,1.7-1.1
		c0.7-0.3,1.4-0.6,2.1-0.8c0.8-0.2,1.6-0.3,2.4-0.3c4.3,0,6.4,2.3,6.4,6.8v22.1h5.6v-22c0-3.5-1-6.3-3-8.5
		C285.5,273.6,282.6,272.5,278.9,272.5z"/>
	<path class="st1" d="M327.8,298.7v-14.2c0-2-0.4-3.7-1-5.2c-0.7-1.5-1.6-2.7-2.8-3.7c-1.2-1-2.6-1.8-4.2-2.3
		c-1.6-0.5-3.3-0.8-5.1-0.8c-1.2,0-2.3,0.1-3.4,0.2c-1,0.1-2.1,0.4-3,0.7c-1,0.3-1.9,0.7-2.9,1.1c-0.9,0.4-1.9,1-3,1.6l2.4,4.2
		c1.7-1,3.3-1.7,4.7-2.2c1.4-0.5,3.2-0.7,5.2-0.7c2.2,0,4,0.6,5.5,1.7c1.4,1.1,2.1,2.8,2.1,5.1v3h-12.3c-1.4,0-2.7,0.2-4,0.7
		c-1.3,0.5-2.4,1.2-3.3,2c-1,0.9-1.7,1.9-2.3,3.1c-0.6,1.2-0.9,2.5-0.9,4c0,1.5,0.3,2.9,0.8,4.1c0.5,1.2,1.3,2.3,2.3,3.2
		c1,0.9,2.1,1.6,3.4,2.1c1.3,0.5,2.7,0.7,4.1,0.7c2.2,0,4.4-0.4,6.6-1.3c2.2-0.9,4.1-2,5.9-3.3c0,0.6,0.2,1.3,0.4,2
		c0.2,0.7,0.5,1.3,0.8,1.8h6c-0.7-1.3-1.2-2.5-1.5-3.6C327.9,301.5,327.8,300.2,327.8,298.7z M322.2,297.5c-0.7,0.4-1.5,0.9-2.5,1.4
		c-1,0.5-2,1-3.1,1.5c-1.1,0.5-2.1,0.9-3.1,1.2c-1,0.3-1.9,0.5-2.7,0.5c-0.7,0-1.4-0.1-2.1-0.4c-0.7-0.3-1.3-0.6-1.8-1.1
		c-0.5-0.5-1-1-1.3-1.6c-0.3-0.6-0.5-1.3-0.5-2.1c0-0.7,0.1-1.3,0.4-1.9c0.3-0.6,0.6-1.2,1-1.6c0.4-0.5,1-0.8,1.6-1.1
		c0.6-0.3,1.3-0.4,2-0.4h12.2V297.5z"/>
	<path class="st1" d="M353.6,272.5c-5.4,0-9.4,1.3-12,3.9c-2.7,2.6-4,6.6-4,12.2v3.4c0,2.6,0.3,4.8,1,6.6c0.7,1.8,1.6,3.3,2.7,4.4
		c1.2,1.1,2.6,2,4.1,2.5c1.6,0.5,3.3,0.8,5.2,0.8c1.2,0,2.3-0.2,3.3-0.5c1-0.4,1.9-0.8,2.7-1.2c0.8-0.5,1.5-1,2.1-1.4
		c0.6-0.5,1-0.8,1.2-1.1v3.3c0,2.7-0.8,4.9-2.3,6.6c-1.5,1.7-3.7,2.6-6.5,2.6c-2,0-3.7-0.2-5.2-0.7c-1.5-0.5-3-1.2-4.7-2.2l-2.7,4.6
		c2.1,1.2,4.1,2.1,5.9,2.7c1.9,0.6,4,0.9,6.5,0.9c2.2,0,4.2-0.4,6-1.1c1.8-0.7,3.3-1.8,4.6-3.1c1.3-1.3,2.2-2.8,2.9-4.6
		c0.7-1.8,1-3.7,1-5.8v-30.2c-1.7-0.7-3.6-1.3-5.6-1.7C357.9,272.7,355.8,272.5,353.6,272.5z M360,296.1c-1.7,1.9-3.4,3.2-5,4
		c-1.6,0.8-3,1.2-4.3,1.2c-2.3,0-4.2-0.7-5.5-2.1c-1.3-1.4-2-3.7-2-7V288c0-3.5,0.8-6.2,2.4-8c1.6-1.8,4.3-2.7,8.1-2.7
		c1.1,0,2.2,0.1,3.2,0.3c1.1,0.2,2.1,0.4,3,0.7V296.1z"/>
	<rect x="376.3" y="273.3" class="st1" width="5.6" height="32.9"/>
	<path class="st1" d="M379,260c-0.9,0-1.6,0.3-2.2,0.9c-0.6,0.6-0.9,1.3-0.9,2.2c0,0.9,0.3,1.6,0.9,2.2c0.6,0.6,1.3,0.9,2.2,0.9
		s1.6-0.3,2.2-0.9c0.6-0.6,0.9-1.3,0.9-2.2c0-0.9-0.3-1.6-0.9-2.2C380.6,260.3,379.9,260,379,260z"/>
	<path class="st1" d="M416.1,276c-1.1-1.1-2.4-2-4-2.6c-1.6-0.6-3.4-0.9-5.4-0.9c-1.5,0-3,0.4-4.7,1.1c-1.6,0.7-2.9,1.6-3.8,2.8
		h-0.4c-0.2-0.7-0.4-1.4-0.7-2c-0.3-0.6-0.6-1.2-0.9-1.8l-5.2,2.4c1,2,1.5,4.2,1.5,6.5v24.8h5.6v-25.6c0.6-0.7,1.7-1.4,3.2-2.1
		s3.2-1.1,5.2-1.1c2.1,0,3.8,0.7,5.2,2c1.4,1.3,2.1,3.2,2.1,5.4v21.4h5.6v-21.3c0-1.7-0.3-3.4-0.9-4.9
		C418,278.5,417.1,277.2,416.1,276z"/>
	<path class="st1" d="M455,276.9c-1.3-1.4-2.9-2.5-4.8-3.3c-1.9-0.8-4.1-1.2-6.5-1.2c-2.2,0-4.3,0.4-6.3,1.2c-2,0.8-3.8,2-5.3,3.7
		c-0.9,1-1.5,1.9-2,2.9c-0.5,1-0.8,2-1,3c-0.2,1-0.4,2-0.4,3c0,1-0.1,2.1-0.1,3.2v0.7c0,2.5,0.3,4.8,0.8,6.9
		c0.6,2.1,1.5,3.8,2.7,5.3c1.3,1.5,2.9,2.6,4.9,3.4c2,0.8,4.5,1.2,7.4,1.2c2.9,0,5.4-0.6,7.7-1.8c2.3-1.2,4-2.9,5.3-5l-5-2
		c-1,1.3-2,2.3-3.3,3c-1.2,0.7-2.7,1.1-4.4,1.1c-3.6,0-6.2-0.9-8-2.6c-1.8-1.7-2.6-4.5-2.6-8.4h24.7v-2.9c0-2.3-0.3-4.4-1-6.3
		C457.3,280,456.3,278.3,455,276.9z M453.3,286.6h-19.1V286c0-1.1,0.2-2.2,0.7-3.3c0.5-1,1.1-2,2-2.8c0.8-0.8,1.9-1.4,3-1.9
		c1.2-0.5,2.5-0.7,3.9-0.7c1.5,0,2.8,0.3,4,0.8c1.2,0.5,2.2,1.2,3,2s1.5,1.7,1.9,2.8c0.4,1,0.7,2.1,0.7,3.2V286.6z"/>
	<path class="st1" d="M589.6,298.2V260l-5.6,1.6v36.6c0,1.3,0.2,2.4,0.7,3.5s1,2,1.8,2.8c0.8,0.8,1.7,1.4,2.7,1.9
		c1,0.5,2.1,0.7,3.3,0.7c0.6,0,1.3-0.1,2.2-0.2c0.8-0.1,1.6-0.3,2.4-0.6v-4h-3.3C591,302.1,589.6,300.8,589.6,298.2z"/>
	<path class="st1" d="M629.1,276.9c-1.3-1.4-2.9-2.5-4.8-3.3c-1.9-0.8-4.1-1.2-6.5-1.2c-2.2,0-4.3,0.4-6.3,1.2c-2,0.8-3.8,2-5.3,3.7
		c-0.9,1-1.5,1.9-2,2.9c-0.5,1-0.8,2-1,3c-0.2,1-0.4,2-0.4,3c0,1-0.1,2.1-0.1,3.2v0.7c0,2.5,0.3,4.8,0.8,6.9
		c0.6,2.1,1.5,3.8,2.7,5.3c1.3,1.5,2.9,2.6,4.9,3.4c2,0.8,4.5,1.2,7.4,1.2c2.9,0,5.4-0.6,7.7-1.8c2.3-1.2,4-2.9,5.3-5l-5-2
		c-1,1.3-2,2.3-3.3,3c-1.2,0.7-2.7,1.1-4.4,1.1c-3.6,0-6.2-0.9-8-2.6c-1.8-1.7-2.6-4.5-2.6-8.4H633v-2.9c0-2.3-0.3-4.4-1-6.3
		C631.4,280,630.4,278.3,629.1,276.9z M627.4,286.6h-19.1V286c0-1.1,0.2-2.2,0.7-3.3c0.5-1,1.1-2,2-2.8c0.8-0.8,1.9-1.4,3-1.9
		c1.2-0.5,2.5-0.7,3.9-0.7c1.5,0,2.8,0.3,4,0.8c1.2,0.5,2.2,1.2,3,2s1.5,1.7,1.9,2.8c0.4,1,0.7,2.1,0.7,3.2V286.6z"/>
	<path class="st1" d="M668.9,298.7v-14.2c0-2-0.4-3.7-1-5.2c-0.7-1.5-1.6-2.7-2.8-3.7s-2.6-1.8-4.2-2.3c-1.6-0.5-3.3-0.8-5.1-0.8
		c-1.2,0-2.3,0.1-3.4,0.2c-1,0.1-2.1,0.4-3,0.7c-1,0.3-1.9,0.7-2.9,1.1c-0.9,0.4-1.9,1-3,1.6l2.4,4.2c1.7-1,3.3-1.7,4.7-2.2
		c1.4-0.5,3.2-0.7,5.2-0.7c2.2,0,4,0.6,5.5,1.7c1.4,1.1,2.1,2.8,2.1,5.1v3H651c-1.4,0-2.7,0.2-4,0.7c-1.3,0.5-2.4,1.2-3.3,2
		c-1,0.9-1.7,1.9-2.3,3.1c-0.6,1.2-0.9,2.5-0.9,4c0,1.5,0.3,2.9,0.8,4.1c0.5,1.2,1.3,2.3,2.3,3.2c1,0.9,2.1,1.6,3.4,2.1
		c1.3,0.5,2.7,0.7,4.1,0.7c2.2,0,4.4-0.4,6.6-1.3c2.2-0.9,4.1-2,5.9-3.3c0,0.6,0.2,1.3,0.4,2c0.2,0.7,0.5,1.3,0.8,1.8h6
		c-0.7-1.3-1.2-2.5-1.5-3.6C669.1,301.5,668.9,300.2,668.9,298.7z M663.3,297.5c-0.7,0.4-1.5,0.9-2.5,1.4c-1,0.5-2,1-3.1,1.5
		c-1.1,0.5-2.1,0.9-3.1,1.2c-1,0.3-1.9,0.5-2.7,0.5c-0.7,0-1.4-0.1-2.1-0.4c-0.7-0.3-1.3-0.6-1.8-1.1c-0.5-0.5-1-1-1.3-1.6
		c-0.3-0.6-0.5-1.3-0.5-2.1c0-0.7,0.1-1.3,0.4-1.9c0.3-0.6,0.6-1.2,1-1.6c0.4-0.5,1-0.8,1.6-1.1c0.6-0.3,1.3-0.4,2-0.4h12.2V297.5z"
		/>
	<path class="st1" d="M688.7,273.6c-1.1,0.7-2.1,1.7-2.9,3h-0.4c-0.1-0.8-0.3-1.5-0.6-2.2c-0.3-0.7-0.6-1.3-0.9-1.9l-5.2,2.4
		c1,2,1.5,4.2,1.5,6.5v24.8h5.6v-16.8c0-1.6,0.1-3,0.4-4.4c0.3-1.4,0.7-2.6,1.2-3.6c0.5-1,1.2-1.8,2.1-2.4c0.9-0.6,1.8-0.9,3-0.9
		c1.1,0,2.4,0.4,3.7,1l2-5.2c-1.9-1-3.7-1.4-5.4-1.4C691.2,272.5,689.8,272.9,688.7,273.6z"/>
	<path class="st1" d="M729.4,276c-1.1-1.1-2.4-2-4-2.6c-1.6-0.6-3.4-0.9-5.4-0.9c-1.5,0-3,0.4-4.7,1.1c-1.6,0.7-2.9,1.6-3.8,2.8
		h-0.4c-0.2-0.7-0.4-1.4-0.7-2c-0.3-0.6-0.6-1.2-0.9-1.8l-5.2,2.4c1,2,1.5,4.2,1.5,6.5v24.8h5.6v-25.6c0.6-0.7,1.7-1.4,3.2-2.1
		c1.5-0.8,3.2-1.1,5.2-1.1c2.1,0,3.8,0.7,5.2,2c1.4,1.3,2.1,3.2,2.1,5.4v21.4h5.6v-21.3c0-1.7-0.3-3.4-0.9-4.9
		C731.4,278.5,730.5,277.2,729.4,276z"/>
	<path class="st1" d="M877.5,301.5c-1.5,0.4-2.8,0.7-4.1,0.7c-1.5,0-2.8-0.2-4-0.7s-2.1-1.1-2.9-1.9c-1.2-1.2-2.1-2.6-2.6-4.4
		c-0.5-1.8-0.8-3.6-0.8-5.5v-1c0-1.5,0.2-3,0.7-4.5c0.5-1.5,1.2-2.7,2.2-3.8c0.9-1,2-1.7,3.3-2.2c1.3-0.5,2.6-0.8,4.1-0.8
		c1.8,0,3.3,0.3,4.4,0.8c1.2,0.5,2.2,1.2,3.2,2l3.5-3.4c-1.4-1.4-3-2.4-5-3.1c-1.9-0.7-3.9-1-5.8-1c-1,0-2.1,0.1-3.3,0.3
		c-1.2,0.2-2.3,0.5-3.4,0.9c-1.1,0.4-2.1,0.9-3.1,1.5c-1,0.6-1.8,1.3-2.5,2.2c-0.8,1-1.5,1.9-1.9,2.8c-0.5,0.9-0.8,1.8-1,2.7
		c-0.2,0.9-0.4,1.8-0.5,2.8c-0.1,1-0.1,2-0.1,3v1.2c0,1,0,2.1,0.1,3.1c0.1,1,0.2,2.1,0.4,3.1c0.4,1.7,0.9,3.1,1.7,4.3
		c0.8,1.2,1.7,2.3,2.9,3.3c1.4,1.1,3,2,4.9,2.5c1.9,0.5,3.7,0.8,5.5,0.8c2.1,0,4.1-0.3,6-1c1.9-0.7,3.6-1.8,5.1-3.3l-3.5-3.3
		C880.1,300.3,878.9,301,877.5,301.5z"/>
	<path class="st1" d="M902.5,273.6c-1.1,0.7-2.1,1.7-2.9,3h-0.4c-0.1-0.8-0.3-1.5-0.6-2.2c-0.3-0.7-0.6-1.3-0.9-1.9l-5.2,2.4
		c1,2,1.5,4.2,1.5,6.5v24.8h5.6v-16.8c0-1.6,0.1-3,0.4-4.4c0.3-1.4,0.7-2.6,1.2-3.6c0.5-1,1.2-1.8,2.1-2.4c0.9-0.6,1.8-0.9,3-0.9
		c1.1,0,2.4,0.4,3.7,1l2-5.2c-1.9-1-3.7-1.4-5.4-1.4C904.9,272.5,903.6,272.9,902.5,273.6z"/>
	<path class="st1" d="M944.6,276.9c-1.3-1.4-2.9-2.5-4.8-3.3c-1.9-0.8-4.1-1.2-6.5-1.2c-2.2,0-4.3,0.4-6.3,1.2c-2,0.8-3.8,2-5.3,3.7
		c-0.9,1-1.5,1.9-2,2.9c-0.5,1-0.8,2-1,3c-0.2,1-0.4,2-0.4,3c0,1-0.1,2.1-0.1,3.2v0.7c0,2.5,0.3,4.8,0.8,6.9
		c0.6,2.1,1.5,3.8,2.7,5.3c1.3,1.5,2.9,2.6,4.9,3.4c2,0.8,4.5,1.2,7.4,1.2c2.9,0,5.4-0.6,7.7-1.8c2.3-1.2,4-2.9,5.3-5l-5-2
		c-1,1.3-2,2.3-3.3,3c-1.2,0.7-2.7,1.1-4.4,1.1c-3.6,0-6.2-0.9-8-2.6c-1.8-1.7-2.6-4.5-2.6-8.4h24.7v-2.9c0-2.3-0.3-4.4-1-6.3
		C946.9,280,945.9,278.3,944.6,276.9z M942.9,286.6h-19.1V286c0-1.1,0.2-2.2,0.7-3.3c0.5-1,1.1-2,2-2.8c0.8-0.8,1.9-1.4,3-1.9
		c1.2-0.5,2.5-0.7,3.9-0.7c1.5,0,2.8,0.3,4,0.8c1.2,0.5,2.2,1.2,3,2s1.5,1.7,1.9,2.8c0.4,1,0.7,2.1,0.7,3.2V286.6z"/>
	<path class="st1" d="M984.4,298.7v-14.2c0-2-0.4-3.7-1-5.2c-0.7-1.5-1.6-2.7-2.8-3.7s-2.6-1.8-4.2-2.3c-1.6-0.5-3.3-0.8-5.1-0.8
		c-1.2,0-2.3,0.1-3.4,0.2c-1,0.1-2.1,0.4-3,0.7c-1,0.3-1.9,0.7-2.9,1.1c-0.9,0.4-1.9,1-3,1.6l2.4,4.2c1.7-1,3.3-1.7,4.7-2.2
		c1.4-0.5,3.2-0.7,5.2-0.7c2.2,0,4,0.6,5.5,1.7c1.4,1.1,2.1,2.8,2.1,5.1v3h-12.3c-1.4,0-2.7,0.2-4,0.7c-1.3,0.5-2.4,1.2-3.3,2
		c-1,0.9-1.7,1.9-2.3,3.1c-0.6,1.2-0.9,2.5-0.9,4c0,1.5,0.3,2.9,0.8,4.1c0.5,1.2,1.3,2.3,2.3,3.2c1,0.9,2.1,1.6,3.4,2.1
		c1.3,0.5,2.7,0.7,4.1,0.7c2.2,0,4.4-0.4,6.6-1.3c2.2-0.9,4.1-2,5.9-3.3c0,0.6,0.2,1.3,0.4,2c0.2,0.7,0.5,1.3,0.8,1.8h6
		c-0.7-1.3-1.2-2.5-1.5-3.6C984.5,301.5,984.4,300.2,984.4,298.7z M978.8,297.5c-0.7,0.4-1.5,0.9-2.5,1.4c-1,0.5-2,1-3.1,1.5
		c-1.1,0.5-2.1,0.9-3.1,1.2c-1,0.3-1.9,0.5-2.7,0.5c-0.7,0-1.4-0.1-2.1-0.4c-0.7-0.3-1.3-0.6-1.8-1.1c-0.5-0.5-1-1-1.3-1.6
		c-0.3-0.6-0.5-1.3-0.5-2.1c0-0.7,0.1-1.3,0.4-1.9c0.3-0.6,0.6-1.2,1-1.6c0.4-0.5,1-0.8,1.6-1.1c0.6-0.3,1.3-0.4,2-0.4h12.2V297.5z"
		/>
	<path class="st1" d="M1002.3,298.2v-20.6h4.6l1.4-4.4h-6v-8.6l-5.6,1.6v7.1H993v4.4h3.7v20.6c0,1.4,0.2,2.6,0.6,3.8
		c0.4,1.1,0.9,2,1.7,2.8c0.8,0.7,1.7,1.3,2.8,1.7c1.1,0.4,2.2,0.6,3.4,0.6c0.6,0,1.2-0.1,1.7-0.2c0.5-0.1,1.2-0.3,1.9-0.6v-4.1h-2.4
		C1003.7,302.1,1002.3,300.8,1002.3,298.2z"/>
	<path class="st1" d="M1042.2,276.9c-1.3-1.4-2.9-2.5-4.8-3.3c-1.9-0.8-4.1-1.2-6.5-1.2c-2.2,0-4.3,0.4-6.3,1.2
		c-2,0.8-3.8,2-5.3,3.7c-0.9,1-1.5,1.9-2,2.9c-0.5,1-0.8,2-1,3c-0.2,1-0.4,2-0.4,3c0,1-0.1,2.1-0.1,3.2v0.7c0,2.5,0.3,4.8,0.8,6.9
		c0.6,2.1,1.5,3.8,2.7,5.3c1.3,1.5,2.9,2.6,4.9,3.4c2,0.8,4.5,1.2,7.4,1.2c2.9,0,5.4-0.6,7.7-1.8c2.3-1.2,4-2.9,5.3-5l-5-2
		c-1,1.3-2,2.3-3.3,3c-1.2,0.7-2.7,1.1-4.4,1.1c-3.6,0-6.2-0.9-8-2.6c-1.8-1.7-2.6-4.5-2.6-8.4h24.7v-2.9c0-2.3-0.3-4.4-1-6.3
		C1044.5,280,1043.5,278.3,1042.2,276.9z M1040.5,286.6h-19.1V286c0-1.1,0.2-2.2,0.7-3.3c0.5-1,1.1-2,2-2.8c0.8-0.8,1.9-1.4,3-1.9
		c1.2-0.5,2.5-0.7,3.9-0.7c1.5,0,2.8,0.3,4,0.8c1.2,0.5,2.2,1.2,3,2s1.5,1.7,1.9,2.8c0.4,1,0.7,2.1,0.7,3.2V286.6z"/>
	<path class="st2" d="M89.7,157.3c-28.1,0-50.7-22.2-50.7-49.6c0-27.6,22.6-49.5,50.7-49.5c13.7,0,27.2,5.9,36.8,15.5l8.5-10.3
		c-11.9-11.2-28.5-18.1-45.5-18.1c-36.1,0-64.9,27.6-64.9,62.4c0,35.2,28.5,63,64.4,63c17.3,0,34-7.3,46.3-18.9l-8.7-9.4
		C116.7,151.6,103.4,157.3,89.7,157.3z"/>
	<polygon class="st2" points="509.7,113.5 572.5,113.5 572.5,100.6 509.7,100.6 509.7,58.7 580,58.7 580,45.6 495.5,45.6 
		495.5,170.1 582.3,170.1 582.3,157 509.7,157 	"/>
	<path class="st2" d="M228.9,45.2c-36.5,0-65.3,27.6-65.3,62.6c0,35,28.8,62.8,65.3,62.8c36.3,0,65.1-27.8,65.1-62.8
		C294,72.8,265.2,45.2,228.9,45.2z M228.9,157.7c-27.8,0-50.9-22.2-50.9-49.8c0-27.6,23.1-49.5,50.9-49.5
		c27.8,0,50.5,21.9,50.5,49.5C279.4,135.4,256.7,157.7,228.9,157.7z"/>
	<path class="st2" d="M451.9,107.8c0-35.4-27.8-62.3-64-62.3h-50.3v124.5h49.8C424,170.1,451.9,143.3,451.9,107.8z M388.1,157h-36.3
		V58.7h35.8c27.9,0,50,21.2,50,49.3C437.5,136,415.8,157,388.1,157z"/>
	<polygon class="st1" points="1175.3,162.8 1175.3,110.2 1240,110.2 1240,102.7 1175.3,102.7 1175.3,53.1 1248.1,53.1 1248.1,45.8 
		1167.8,45.8 1167.8,170.1 1250.4,170.1 1250.4,162.8 	"/>
	<path class="st1" d="M1076.4,163c-31.5,0-56.9-24.7-56.9-55.3c0-30.4,25.4-55,56.9-55c14.8,0,28.8,5.7,39.1,15.3l4.4-5.7
		c-11.6-10.3-27-16.7-43.8-16.7c-35.4,0-64.2,27.8-64.2,62.3c0,34.5,28.8,62.4,64.2,62.4c16.5,0,32.4-6.6,43.9-17.3l-4.6-5.2
		C1105.1,157.3,1091.2,163,1076.4,163z"/>
	<path class="st1" d="M799.2,45.8h-43.8v124.4h7.5v-41.5h36.3c30.6,0,47.9-15.3,47.9-42C847.1,60.7,829.8,45.8,799.2,45.8z
		 M799,121.4h-36.1V53.1H799c26,0,40.9,11.9,40.9,33.8C840,109.1,825,121.4,799,121.4z"/>
	<path class="st1" d="M631.5,74.4c0-13,12.8-21.2,32.6-21.2c10.7,0,23.3,3,32.6,9.1l3.4-6.8c-9.3-6-23-10.1-35.6-10.1
		c-24.6,0-40.9,11.6-40.9,29.5c0,44.8,73.1,24.9,72.8,63.9c0,14.6-13.7,23.8-35,23.8c-14.6,0-30.4-6.4-40.6-16.9l-3.9,6.6
		c10.9,10.7,27.8,18,44.3,18c26,0,43.2-12.5,43.2-31.7C704.6,92.7,631.5,112.3,631.5,74.4z"/>
	<polygon class="st3" points="984.9,163.2 996.9,170.1 961.1,108.1 925.3,46.1 925.3,60 	"/>
	<polygon class="st4" points="925.3,60 925.3,46.1 853.7,170.1 865.7,163.2 	"/>
	<polygon class="st1" points="996.9,170.1 962.8,111 962.4,110.3 961.1,108.1 956.9,100.8 925.3,46.1 961.1,108.1 	"/>
	<polygon class="st1" points="984.9,163.2 865.7,163.2 853.7,170.1 996.9,170.1 	"/>
</g>
</svg>
